<?xml version="1.0" encoding="utf-8"?>
<!-- Generator: Adobe Illustrator 23.0.1, SVG Export Plug-In . SVG Version: 6.00 Build 0)  -->
<svg version="1.1" id="Layer_1" xmlns="http://www.w3.org/2000/svg" xmlns:xlink="http://www.w3.org/1999/xlink" x="0px" y="0px"
	 viewBox="0 0 1025 1071" style="enable-background:new 0 0 1025 1071;" xml:space="preserve">
<style type="text/css">
	.st0{fill:#808080;}
	.st1{fill:#666666;}
	.st2{fill:#999999;}
	.st3{fill:#B3B3B3;}
	.st4{fill:#CCCCCC;}
</style>
<g>
	<path class="st0" d="M155.8,643.1l673.5,254.6c28.4,10.7,60.2-3.6,70.9-32l0,0c10.7-28.4-3.6-60.2-32-70.9L194.7,540.2
		c-28.4-10.7-60.2,3.6-70.9,32l0,0C113.1,600.7,127.4,632.4,155.8,643.1z"/>
	<g>
		<circle class="st1" cx="174.3" cy="591.3" r="29"/>
		<circle class="st1" cx="847.8" cy="846" r="29"/>
	</g>
</g>
<g>
	<path class="st2" d="M868.2,643.1L194.7,897.8c-28.4,10.7-60.2-3.6-70.9-32l0,0c-10.7-28.4,3.6-60.2,32-70.9l673.5-254.6
		c28.4-10.7,60.2,3.6,70.9,32l0,0C910.9,600.7,896.6,632.4,868.2,643.1z"/>
	<g>
		<circle class="st1" cx="849.7" cy="591.3" r="29"/>
		<circle class="st1" cx="176.2" cy="846" r="29"/>
	</g>
</g>
<g>
	<path class="st3" d="M913.7,853H111.3C78.5,853,52,879.5,52,912.3V1072h921V912.3C973,879.5,946.5,853,913.7,853z"/>
</g>
<g>
	<path class="st4" d="M913.7,853H111.3C78.5,853,52,879.5,52,912.3V939h921v-26.7C973,879.5,946.5,853,913.7,853z"/>
</g>
<path class="st3" d="M928.5,584.1H96.5c-11.3,0-20.5-9.2-20.5-20.5v-76.1c0-11.3,9.2-20.5,20.5-20.5h831.9
	c11.3,0,20.5,9.2,20.5,20.5v76.1C949,574.9,939.8,584.1,928.5,584.1z"/>
<path class="st4" d="M949,508v-20.6c0-11.3-9.2-20.5-20.5-20.5H96.5c-11.3,0-20.5,9.2-20.5,20.5V508H949z"/>
<circle class="st1" cx="508" cy="719" r="27"/>
</svg>
