<?xml version="1.0" encoding="utf-8"?>
<!-- Generator: Adobe Illustrator 23.0.1, SVG Export Plug-In . SVG Version: 6.00 Build 0)  -->
<svg version="1.1" id="Layer_2" xmlns="http://www.w3.org/2000/svg" xmlns:xlink="http://www.w3.org/1999/xlink" x="0px" y="0px"
	 viewBox="0 0 1025 1071" style="enable-background:new 0 0 1025 1071;" xml:space="preserve">
<style type="text/css">
	.st0{fill:#808080;}
	.st1{fill:#666666;}
	.st2{fill:#999999;}
	.st3{fill:#B3B3B3;}
	.st4{fill:#CCCCCC;}
</style>
<g>
	<path class="st0" d="M287.9,242.9l352.3,627.9c14.9,26.5,48.4,35.9,74.9,21.1l0,0c26.5-14.9,35.9-48.4,21.1-74.9L383.8,189.1
		c-14.9-26.5-48.4-35.9-74.9-21.1l0,0C282.5,182.9,273,216.4,287.9,242.9z"/>
	<g>
		<circle class="st1" cx="335.4" cy="215.2" r="29"/>
		<circle class="st1" cx="687.6" cy="843.1" r="29"/>
	</g>
</g>
<g>
	<path class="st2" d="M736.1,242.9L383.8,870.9c-14.9,26.5-48.4,35.9-74.9,21.1l0,0c-26.5-14.9-35.9-48.4-21.1-74.9l352.3-627.9
		c14.9-26.5,48.4-35.9,74.9-21.1l0,0C741.5,182.9,751,216.4,736.1,242.9z"/>
	<g>
		<circle class="st1" cx="688.6" cy="215.2" r="29"/>
		<circle class="st1" cx="336.4" cy="843.1" r="29"/>
	</g>
</g>
<g>
	<path class="st3" d="M913.7,853H111.3C78.5,853,52,879.5,52,912.3V1072h921V912.3C973,879.5,946.5,853,913.7,853z"/>
</g>
<g>
	<path class="st4" d="M913.7,853H111.3C78.5,853,52,879.5,52,912.3V939h921v-26.7C973,879.5,946.5,853,913.7,853z"/>
</g>
<path class="st3" d="M928.5,209.1H96.5c-11.3,0-20.5-9.2-20.5-20.5v-76.1c0-11.3,9.2-20.5,20.5-20.5h831.9
	c11.3,0,20.5,9.2,20.5,20.5v76.1C949,199.9,939.8,209.1,928.5,209.1z"/>
<path class="st4" d="M949,133v-20.6c0-11.3-9.2-20.5-20.5-20.5H96.5c-11.3,0-20.5,9.2-20.5,20.5V133H949z"/>
<circle class="st1" cx="508" cy="536" r="27"/>
</svg>
